<svg width="269" height="170" viewBox="0 0 269 170" fill="none" xmlns="http://www.w3.org/2000/svg">
<g opacity="0.3">
<path d="M287.919 83.6332C343.535 34.1006 403.86 17.4565 428.125 44.7019C452.391 71.9473 428.902 129.951 373.286 179.483C317.671 229.016 257.346 245.66 233.08 218.415C208.815 191.169 232.304 133.166 287.919 83.6332ZM364.077 169.143C416.688 122.287 435.731 69.8191 419.892 52.0347C404.053 34.2502 349.739 47.1168 297.128 93.973C244.518 140.829 225.474 193.297 241.314 211.082C257.153 228.866 311.467 216 364.077 169.143Z" fill="url(#paint0_linear_1988_1836)"/>
<path d="M249.841 40.8773C305.457 -8.65532 365.781 -25.2993 390.047 1.94608C414.313 29.1915 390.823 87.1947 335.208 136.727C279.593 186.26 219.268 202.904 195.002 175.659C170.737 148.413 194.226 90.41 249.841 40.8773ZM325.999 126.388C378.609 79.5314 397.653 27.0633 381.814 9.27881C365.974 -8.50566 311.66 4.36094 259.05 51.2171C206.44 98.0733 187.396 150.541 203.236 168.326C219.075 186.11 273.389 173.244 325.999 126.388Z" fill="url(#paint1_linear_1988_1836)"/>
<path d="M211.763 -1.87753C267.378 -51.4102 327.703 -68.0542 351.969 -40.8088C376.234 -13.5634 352.745 44.4398 297.13 93.9725C241.515 143.505 181.19 160.149 156.924 132.904C132.659 105.658 156.148 47.6551 211.763 -1.87753ZM287.921 83.6327C340.531 36.7765 359.575 -15.6916 343.736 -33.4761C327.896 -51.2605 273.582 -38.3939 220.972 8.46228C168.362 55.3185 149.318 107.787 165.157 125.571C180.997 143.355 235.311 130.489 287.921 83.6327Z" fill="url(#paint2_linear_1988_1836)"/>
<path d="M173.685 -44.6329C229.3 -94.1655 289.625 -110.81 313.891 -83.5642C338.156 -56.3188 314.667 1.68447 259.052 51.2171C203.437 100.75 143.112 117.394 118.846 90.1484C94.5806 62.903 118.07 4.89976 173.685 -44.6329ZM249.843 40.8773C302.453 -5.97888 321.497 -58.447 305.658 -76.2314C289.818 -94.0159 235.504 -81.1493 182.894 -34.2931C130.284 12.5631 111.24 65.0312 127.079 82.8157C142.919 100.6 197.233 87.7335 249.843 40.8773Z" fill="url(#paint3_linear_1988_1836)"/>
<path d="M135.607 -87.3883C191.222 -136.921 251.547 -153.565 275.813 -126.32C300.078 -99.0742 276.589 -41.0709 220.974 8.46176C165.358 57.9944 105.034 74.6384 80.768 47.393C56.5024 20.1476 79.9915 -37.8556 135.607 -87.3883ZM211.765 -1.87805C264.375 -48.7343 283.419 -101.202 267.579 -118.987C251.74 -136.771 197.426 -123.905 144.816 -77.0485C92.2056 -30.1923 73.1618 22.2758 89.0012 40.0603C104.841 57.8448 159.155 44.9781 211.765 -1.87805Z" fill="url(#paint4_linear_1988_1836)"/>
<path d="M97.5209 -130.143C153.136 -179.676 213.461 -196.32 237.727 -169.074C261.992 -141.829 238.503 -83.8258 182.888 -34.2931C127.273 15.2395 66.9476 31.8835 42.682 4.63814C18.4165 -22.6073 41.9056 -80.6105 97.5209 -130.143ZM173.679 -44.6329C226.289 -91.4891 245.333 -143.957 229.493 -161.742C213.654 -179.526 159.34 -166.66 106.73 -119.803C54.1197 -72.9472 35.0759 -20.4791 50.9152 -2.6946C66.7546 15.0899 121.069 2.22326 173.679 -44.6329Z" fill="url(#paint5_linear_1988_1836)"/>
</g>
<defs>
<linearGradient id="paint0_linear_1988_1836" x1="451.556" y1="71.0104" x2="307.219" y2="-18.3032" gradientUnits="userSpaceOnUse">
<stop stop-color="#201324"/>
<stop offset="1" stop-color="#51008B"/>
</linearGradient>
<linearGradient id="paint1_linear_1988_1836" x1="413.478" y1="28.2546" x2="269.141" y2="-61.0591" gradientUnits="userSpaceOnUse">
<stop stop-color="#201324"/>
<stop offset="1" stop-color="#51008B"/>
</linearGradient>
<linearGradient id="paint2_linear_1988_1836" x1="375.4" y1="-14.5003" x2="231.063" y2="-103.814" gradientUnits="userSpaceOnUse">
<stop stop-color="#201324"/>
<stop offset="1" stop-color="#51008B"/>
</linearGradient>
<linearGradient id="paint3_linear_1988_1836" x1="337.322" y1="-57.2557" x2="192.985" y2="-146.569" gradientUnits="userSpaceOnUse">
<stop stop-color="#201324"/>
<stop offset="1" stop-color="#51008B"/>
</linearGradient>
<linearGradient id="paint4_linear_1988_1836" x1="299.244" y1="-100.011" x2="154.907" y2="-189.325" gradientUnits="userSpaceOnUse">
<stop stop-color="#201324"/>
<stop offset="1" stop-color="#51008B"/>
</linearGradient>
<linearGradient id="paint5_linear_1988_1836" x1="261.158" y1="-142.766" x2="116.821" y2="-232.08" gradientUnits="userSpaceOnUse">
<stop stop-color="#201324"/>
<stop offset="1" stop-color="#51008B"/>
</linearGradient>
</defs>
</svg>
